<svg width="20" height="24" viewBox="0 0 20 24" fill="none" xmlns="http://www.w3.org/2000/svg">
<path d="M19.9293 18.7306L18.0634 7.90171C17.9359 6.97982 17.4863 6.13281 16.7941 5.51074C16.1018 4.88868 15.2118 4.53171 14.2816 4.5031H14.165C14.165 3.39848 13.7262 2.33911 12.9451 1.55802C12.164 0.776942 11.1046 0.338135 10 0.338135C8.89538 0.338135 7.83601 0.776942 7.05493 1.55802C6.27385 2.33911 5.83504 3.39848 5.83504 4.5031H5.71842C4.78821 4.53171 3.89815 4.88868 3.20595 5.51074C2.51375 6.13281 2.06408 6.97982 1.93663 7.90171L0.0707296 18.7306C-0.0438754 19.3588 -0.0189654 20.0046 0.143696 20.6221C0.306357 21.2397 0.602792 21.8139 1.01201 22.3041C1.35681 22.7251 1.79004 23.0649 2.28095 23.2996C2.77186 23.5342 3.30842 23.6579 3.85252 23.6619H16.1475C16.6916 23.6579 17.2281 23.5342 17.719 23.2996C18.21 23.0649 18.6432 22.7251 18.988 22.3041C19.3972 21.8139 19.6936 21.2397 19.8563 20.6221C20.019 20.0046 20.0439 19.3588 19.9293 18.7306V18.7306ZM10 2.00412C10.6628 2.00412 11.2984 2.2674 11.767 2.73605C12.2357 3.2047 12.499 3.84033 12.499 4.5031H7.50102C7.50102 3.84033 7.76431 3.2047 8.23296 2.73605C8.70161 2.2674 9.33723 2.00412 10 2.00412V2.00412ZM17.7135 21.2296C17.5253 21.4651 17.2872 21.6559 17.0165 21.7884C16.7457 21.9209 16.4489 21.9918 16.1475 21.9959H3.85252C3.55109 21.9918 3.25432 21.9209 2.98355 21.7884C2.71277 21.6559 2.47472 21.4651 2.28649 21.2296C2.03264 20.9258 1.84941 20.5695 1.75001 20.1863C1.65061 19.8031 1.63754 19.4027 1.71173 19.0138L3.57763 8.18492C3.63964 7.65049 3.88844 7.15515 4.28014 6.78632C4.67183 6.41748 5.18123 6.19888 5.71842 6.16908H14.2816C14.8188 6.19888 15.3282 6.41748 15.7199 6.78632C16.1116 7.15515 16.3604 7.65049 16.4224 8.18492L18.2883 19.0138C18.3625 19.4027 18.3494 19.8031 18.25 20.1863C18.1506 20.5695 17.9674 20.9258 17.7135 21.2296V21.2296Z" fill="#B8B8B8"/>
</svg>
